<?xml version="1.0" encoding="utf-8"?>
<!-- Generator: Adobe Illustrator 22.1.0, SVG Export Plug-In . SVG Version: 6.00 Build 0)  -->
<svg version="1.1" id="Ebene_1" xmlns="http://www.w3.org/2000/svg" xmlns:xlink="http://www.w3.org/1999/xlink" x="0px" y="0px"
	 viewBox="0 0 13 13" style="enable-background:new 0 0 13 13;" xml:space="preserve">
<style type="text/css">
	.st0{fill:#91979C;}
</style>
<g>
	<path class="st0" d="M4.9,2.9c0-0.3,0.1-0.4,0.4-0.4c0.3,0,0.7,0,1,0c1.2,0,2.5,0,3.7,0c0.7,0,1.1,0.5,1.1,1.1c0,0.3,0,0.7,0,1
		c0,0.5-0.4,0.9-0.9,1c-0.1,0-0.2,0-0.4,0c0.3,1,0.5,2.1,0.8,3.1c0,0,0.1,0.1,0.1,0.1c0.2,0,0.4,0,0.5,0c0.2,0,0.3,0.1,0.3,0.3
		c0,0.2,0,0.5,0,0.7c0,0.5-0.4,0.8-0.8,0.8c-1.1,0-2.2,0-3.2,0c-0.4,0-0.8-0.4-0.8-0.8c0-0.2,0-0.5,0-0.7C6.6,9.1,6.7,9,6.9,9
		c0.2,0,0.3,0,0.5,0c0-0.1,0-0.1,0-0.1c-0.2-1-0.5-2-0.7-3c0-0.1-0.1-0.2-0.2-0.2c-0.5,0-0.9,0-1.4,0c-0.2,0-0.3-0.1-0.3-0.3
		c0,0,0-0.1,0-0.2c-0.1,0-0.2,0-0.3,0c-0.5,0-0.8-0.2-1-0.7C3.5,4.4,3.4,4.4,3.2,4.4c-0.5,0-0.9,0-1.4,0c-0.1,0-0.2-0.1-0.2-0.2
		c0-0.2,0.1-0.2,0.2-0.2c0.3,0,0.6,0,0.9,0c0.3,0,0.5,0,0.8,0C3.7,3.2,3.8,3.2,4.9,2.9C4.9,3,4.9,2.9,4.9,2.9z M5.3,5.3
		c0.1,0,0.1,0,0.2,0c1.4,0,2.9,0,4.3,0c0.5,0,0.8-0.3,0.8-0.8c0-0.3,0-0.6,0-0.8C10.6,3.3,10.4,3,10,3C8.5,3,6.9,3,5.4,3
		c0,0,0,0-0.1,0C5.3,3.8,5.3,4.5,5.3,5.3z M7.9,8.9C7.9,8.9,8,9,8,9c0.7,0,1.4,0,2.1,0C9.9,7.9,9.6,6.9,9.3,5.8c-0.7,0-1.5,0-2.2,0
		C7.4,6.8,7.6,7.9,7.9,8.9z M7.1,10c0,0.2,0.2,0.4,0.4,0.4c1.1,0,2.1,0,3.2,0c0.2,0,0.4-0.2,0.4-0.4c0-0.2,0-0.3,0-0.5
		c-1.3,0-2.6,0-4,0C7.1,9.7,7.1,9.8,7.1,10z M4.9,3.5C4.5,3.4,4.2,3.5,4,3.7C3.9,4,3.8,4.2,4,4.5c0.1,0.3,0.5,0.4,0.9,0.4
		C4.9,4.4,4.9,4,4.9,3.5z"/>
	<path class="st0" d="M7.5,11.1c-0.5,0-1-0.5-1-1c0-0.2,0-0.5,0-0.7c0-0.3,0.2-0.5,0.5-0.5c0.1,0,0.2,0,0.3,0L7,8.1
		C6.9,7.4,6.7,6.7,6.5,6C6.1,6,5.6,6,5.2,6C4.8,6,4.7,5.8,4.7,5.5c0,0-0.1,0-0.1,0C4,5.5,3.6,5.2,3.4,4.7C3.3,4.6,3.3,4.6,3.2,4.6
		c-0.4,0-0.7,0-1.1,0l-0.3,0c-0.1,0-0.2,0-0.3-0.1C1.4,4.4,1.4,4.3,1.4,4.2c0-0.3,0.2-0.4,0.4-0.4l1.5,0C3.6,3.1,3.8,3,4.7,2.8
		c0-0.4,0.2-0.5,0.6-0.5l2.2,0c0.8,0,1.7,0,2.5,0c0.8,0,1.3,0.6,1.3,1.3c0,0.4,0,0.7,0,1.1c0,0.6-0.5,1.1-1,1.2c-0.1,0-0.1,0-0.2,0
		l0.1,0.3c0.2,0.8,0.4,1.7,0.6,2.5c0.1,0,0.2,0,0.3,0l0.2,0c0.1,0,0.3,0,0.3,0.1c0.1,0.1,0.1,0.2,0.1,0.4l0,0.3c0,0.2,0,0.3,0,0.5
		c0,0.6-0.5,1-1,1c-0.5,0-1.1,0-1.6,0C8.5,11.1,8,11.1,7.5,11.1z M11.1,9.2c-0.1,0-0.3,0-0.4,0c-0.1,0-0.3-0.1-0.3-0.2
		C10.2,8.1,10,7.2,9.7,6.4L9.6,5.6l0.3,0c0.1,0,0.2,0,0.2,0c0.4-0.1,0.7-0.4,0.7-0.8c0-0.3,0-0.6,0-1c0-0.6-0.4-0.9-0.9-0.9
		c-0.8,0-1.7,0-2.5,0l-2.2,0c-0.1,0-0.2,0-0.2,0c0,0,0,0.1,0,0.2C5.1,3,5,3,5,3L4.9,3L5,3l0,0.1l-0.1,0c-1,0.2-1,0.2-1.3,0.8l0,0.1
		l-1.8,0c0,0-0.1,0-0.1,0c0,0,0,0,0.1,0l0.3,0c0.4,0,0.7,0,1.1,0c0.3,0,0.5,0.1,0.6,0.4c0.1,0.3,0.4,0.5,0.9,0.6c0,0,0.1,0,0.1,0
		l0.3,0v0.3c0,0,0,0.1,0,0.1c0,0.1,0,0.1,0,0.1c0,0,0,0,0.1,0c0.5,0,0.9,0,1.4,0c0.2,0,0.3,0.1,0.4,0.3C7.1,6.6,7.3,7.3,7.4,8
		l0.2,0.8c0,0,0,0.1,0,0.1l0,0.3l-0.4,0c-0.1,0-0.2,0-0.4,0c-0.1,0-0.1,0-0.1,0c0,0,0,0,0,0.1c0,0.2,0,0.5,0,0.7
		c0,0.4,0.3,0.6,0.6,0.6c1.1,0,2.2,0,3.2,0c0.3,0,0.6-0.3,0.6-0.7c0-0.1,0-0.3,0-0.4l0-0.3c0,0,0-0.1,0-0.1c0,0,0,0-0.1,0L11.1,9.2z
		 M10.7,8.9C10.7,8.9,10.7,8.9,10.7,8.9C10.7,8.9,10.7,8.9,10.7,8.9z M10.7,8.8C10.7,8.8,10.7,8.8,10.7,8.8
		C10.7,8.8,10.7,8.8,10.7,8.8C10.7,8.8,10.7,8.8,10.7,8.8z M7.5,10.6c-0.3,0-0.6-0.2-0.6-0.6c0-0.1,0-0.2,0-0.4l0-0.4h4.4l0,0.4
		c0,0.1,0,0.2,0,0.4c0,0.3-0.3,0.6-0.6,0.6c-0.5,0-1.1,0-1.6,0C8.5,10.6,8,10.6,7.5,10.6z M7.3,9.7c0,0.1,0,0.2,0,0.3
		c0,0.1,0,0.2,0.2,0.2c1.1,0,2.1,0,3.2,0c0.2,0,0.2-0.1,0.2-0.2c0-0.1,0-0.2,0-0.3H7.3z M8,9.2c-0.1,0-0.3-0.1-0.3-0.3
		C7.5,8.1,7.3,7.3,7.1,6.5L6.9,5.6h2.6l0.9,3.6H9.7c-0.1,0-0.3,0-0.4,0C8.9,9.2,8.4,9.2,8,9.2z M9.2,6H7.4l0.1,0.4
		C7.7,7.2,7.9,8,8.1,8.8c0.5,0,1.1,0,1.6,0h0.2L9.2,6z M5.1,5.5V3l0-0.2l0.1,0l1.2,0c1.2,0,2.4,0,3.5,0c0.5,0,0.8,0.4,0.8,0.9
		c0,0.2,0,0.4,0,0.6l0,0.2c0,0.6-0.3,1-0.9,1H7H5.1z M6.5,3.2l-1,0v1.9h4.4c0.4,0,0.6-0.2,0.6-0.6l0-0.2c0-0.2,0-0.4,0-0.6
		c0-0.3-0.2-0.5-0.4-0.5c-0.8,0-1.6,0-2.5,0C7.2,3.2,6.8,3.2,6.5,3.2z M3.8,4.6C3.6,4.3,3.7,3.9,3.9,3.6c0.2-0.3,0.6-0.4,1.1-0.3
		l0.1,0V5L4.9,5C4.8,5,4.8,5,4.7,5C4.3,5,3.9,4.9,3.8,4.6z M4.2,3.9C4.1,4,4,4.2,4.1,4.4c0.1,0.2,0.3,0.3,0.5,0.3v-1
		C4.5,3.7,4.3,3.7,4.2,3.9z"/>
</g>
</svg>
